STARTFONT 2.1
COMMENT 
COMMENT  Copyright (c) 2008, ARK
COMMENT 
COMMENT  License to copy and distribute for both commercial and
COMMENT  non-commercial use is herby granted, provided this notice
COMMENT  is preserved.
COMMENT 
COMMENT  Produced with bdfedit, a tcl/tk font editing program
COMMENT  written by Thomas A. Fine
FONT -ark-boxxy-Medium-R-Normal--14-140-72-72-c-60-ISO10646-1
SIZE 14 72 72
FONTBOUNDINGBOX 6 14 0 -3
STARTPROPERTIES 17
FOUNDRY "ark"
FAMILY_NAME "boxxy"
WEIGHT_NAME "Medium"
SLANT "R"
SETWIDTH_NAME "Normal"
SPACING "c"
CHARSET_REGISTRY "ISO10646"
CHARSET_ENCODING "1"
COPYRIGHT "Designer of this font retains full rights under the law"
FONT_ASCENT 11
FONT_DESCENT 3
PIXEL_SIZE 14
POINT_SIZE 140
RESOLUTION_X 72
RESOLUTION_Y 72
AVERAGE_WIDTH 60
_GBDFED_INFO "Edited with gbdfed 1.6."
ENDPROPERTIES
CHARS 250
STARTCHAR C000
ENCODING 0
SWIDTH 428 0
DWIDTH 6 0
BBX 6 14 0 -3
BITMAP
00
00
00
00
00
00
00
00
00
00
00
00
00
00
ENDCHAR
STARTCHAR C001
ENCODING 1
SWIDTH 428 0
DWIDTH 6 0
BBX 6 14 0 -3
BITMAP
00
00
00
00
00
00
20
70
F8
70
20
00
00
00
ENDCHAR
STARTCHAR C002
ENCODING 2
SWIDTH 428 0
DWIDTH 6 0
BBX 6 14 0 -3
BITMAP
00
00
A8
00
A8
00
A8
00
A8
00
A8
00
00
00
ENDCHAR
STARTCHAR C003
ENCODING 3
SWIDTH 428 0
DWIDTH 6 0
BBX 6 14 0 -3
BITMAP
00
A0
A0
E0
A0
B8
10
10
10
10
00
00
00
00
ENDCHAR
STARTCHAR C004
ENCODING 4
SWIDTH 428 0
DWIDTH 6 0
BBX 6 14 0 -3
BITMAP
00
E0
80
C0
B8
A0
30
20
20
00
00
00
00
00
ENDCHAR
STARTCHAR C005
ENCODING 5
SWIDTH 428 0
DWIDTH 6 0
BBX 6 14 0 -3
BITMAP
00
60
80
80
80
70
28
38
30
28
00
00
00
00
ENDCHAR
STARTCHAR C006
ENCODING 6
SWIDTH 428 0
DWIDTH 6 0
BBX 6 14 0 -3
BITMAP
00
80
80
80
80
F0
00
70
40
60
40
00
00
00
ENDCHAR
STARTCHAR C007
ENCODING 7
SWIDTH 428 0
DWIDTH 6 0
BBX 6 14 0 -3
BITMAP
00
00
60
90
90
60
00
00
00
00
00
00
00
00
ENDCHAR
STARTCHAR C010
ENCODING 8
SWIDTH 428 0
DWIDTH 6 0
BBX 6 14 0 -3
BITMAP
00
00
00
00
00
20
70
20
00
F8
00
00
00
00
ENDCHAR
STARTCHAR char9
ENCODING 9
SWIDTH 428 0
DWIDTH 6 0
BBX 6 14 0 -3
BITMAP
00
00
00
00
00
00
00
00
00
00
00
00
00
00
ENDCHAR
STARTCHAR char10
ENCODING 10
SWIDTH 428 0
DWIDTH 6 0
BBX 6 14 0 -3
BITMAP
00
00
00
00
00
00
00
00
00
00
00
00
00
00
ENDCHAR
STARTCHAR C013
ENCODING 11
SWIDTH 428 0
DWIDTH 6 0
BBX 6 14 0 -3
BITMAP
00
20
20
20
20
20
E0
00
00
00
00
00
00
00
ENDCHAR
STARTCHAR C014
ENCODING 12
SWIDTH 428 0
DWIDTH 6 0
BBX 6 14 0 -3
BITMAP
00
00
00
00
00
00
E0
20
20
20
20
00
00
00
ENDCHAR
STARTCHAR char13
ENCODING 13
SWIDTH 428 0
DWIDTH 6 0
BBX 6 14 0 -3
BITMAP
00
00
00
00
00
00
00
00
00
00
00
00
00
00
ENDCHAR
STARTCHAR C016
ENCODING 14
SWIDTH 428 0
DWIDTH 6 0
BBX 6 14 0 -3
BITMAP
00
80
80
80
80
80
E0
00
00
00
00
00
00
00
ENDCHAR
STARTCHAR C017
ENCODING 15
SWIDTH 428 0
DWIDTH 6 0
BBX 6 14 0 -3
BITMAP
00
40
40
40
40
40
E0
40
40
40
40
00
00
00
ENDCHAR
STARTCHAR C020
ENCODING 16
SWIDTH 428 0
DWIDTH 6 0
BBX 6 14 0 -3
BITMAP
00
FC
00
00
00
00
00
00
00
00
00
00
00
00
ENDCHAR
STARTCHAR C021
ENCODING 17
SWIDTH 428 0
DWIDTH 6 0
BBX 6 14 0 -3
BITMAP
00
00
F8
00
00
00
00
00
00
00
00
00
00
00
ENDCHAR
STARTCHAR C022
ENCODING 18
SWIDTH 428 0
DWIDTH 6 0
BBX 6 14 0 -3
BITMAP
00
00
00
F8
00
00
00
00
00
00
00
00
00
00
ENDCHAR
STARTCHAR C023
ENCODING 19
SWIDTH 428 0
DWIDTH 6 0
BBX 6 14 0 -3
BITMAP
00
00
00
00
00
00
F8
00
00
00
00
00
00
00
ENDCHAR
STARTCHAR C024
ENCODING 20
SWIDTH 428 0
DWIDTH 6 0
BBX 6 14 0 -3
BITMAP
00
00
00
00
00
00
00
00
00
00
F8
00
00
00
ENDCHAR
STARTCHAR C025
ENCODING 21
SWIDTH 428 0
DWIDTH 6 0
BBX 6 14 0 -3
BITMAP
00
00
80
80
80
80
E0
80
80
80
80
00
00
00
ENDCHAR
STARTCHAR C026
ENCODING 22
SWIDTH 428 0
DWIDTH 6 0
BBX 6 14 0 -3
BITMAP
00
00
20
20
20
20
E0
20
20
20
20
00
00
00
ENDCHAR
STARTCHAR C027
ENCODING 23
SWIDTH 428 0
DWIDTH 6 0
BBX 6 14 0 -3
BITMAP
00
20
20
20
20
20
F8
00
00
00
00
00
00
00
ENDCHAR
STARTCHAR C030
ENCODING 24
SWIDTH 428 0
DWIDTH 6 0
BBX 6 14 0 -3
BITMAP
00
00
00
00
00
00
F8
20
20
20
20
20
00
00
ENDCHAR
STARTCHAR C031
ENCODING 25
SWIDTH 428 0
DWIDTH 6 0
BBX 6 14 0 -3
BITMAP
00
20
20
20
20
20
20
20
20
20
20
00
00
00
ENDCHAR
STARTCHAR C032
ENCODING 26
SWIDTH 428 0
DWIDTH 6 0
BBX 6 14 0 -3
BITMAP
00
00
00
00
10
20
40
20
10
00
F8
00
00
00
ENDCHAR
STARTCHAR C033
ENCODING 27
SWIDTH 428 0
DWIDTH 6 0
BBX 6 14 0 -3
BITMAP
00
00
00
00
40
20
10
20
40
00
F8
00
00
00
ENDCHAR
STARTCHAR C034
ENCODING 28
SWIDTH 428 0
DWIDTH 6 0
BBX 6 14 0 -3
BITMAP
00
00
00
00
00
F8
50
50
50
50
48
00
00
00
ENDCHAR
STARTCHAR C035
ENCODING 29
SWIDTH 428 0
DWIDTH 6 0
BBX 6 14 0 -3
BITMAP
00
00
00
00
00
10
F8
20
F8
40
00
00
00
00
ENDCHAR
STARTCHAR char30
ENCODING 30
SWIDTH 428 0
DWIDTH 6 0
BBX 6 14 0 -3
BITMAP
00
00
00
00
00
00
00
00
00
00
FC
00
00
00
ENDCHAR
STARTCHAR C037
ENCODING 31
SWIDTH 428 0
DWIDTH 6 0
BBX 6 14 0 -3
BITMAP
00
00
00
00
00
00
00
00
60
60
00
00
00
00
ENDCHAR
STARTCHAR char32
ENCODING 32
SWIDTH 428 0
DWIDTH 6 0
BBX 6 14 0 -3
BITMAP
00
00
00
00
00
00
00
00
00
00
00
00
00
00
ENDCHAR
STARTCHAR C041
ENCODING 33
SWIDTH 428 0
DWIDTH 6 0
BBX 6 14 0 -3
BITMAP
00
00
20
20
20
20
20
20
00
20
20
00
00
00
ENDCHAR
STARTCHAR C042
ENCODING 34
SWIDTH 428 0
DWIDTH 6 0
BBX 6 14 0 -3
BITMAP
00
50
50
50
00
00
00
00
00
00
00
00
00
00
ENDCHAR
STARTCHAR C043
ENCODING 35
SWIDTH 428 0
DWIDTH 6 0
BBX 6 14 0 -3
BITMAP
00
00
00
50
50
F8
50
50
F8
50
50
00
00
00
ENDCHAR
STARTCHAR C044
ENCODING 36
SWIDTH 428 0
DWIDTH 6 0
BBX 6 14 0 -3
BITMAP
00
00
20
78
88
80
70
08
88
F0
20
00
00
00
ENDCHAR
STARTCHAR C045
ENCODING 37
SWIDTH 428 0
DWIDTH 6 0
BBX 6 14 0 -3
BITMAP
00
00
40
A0
48
10
20
40
90
28
10
00
00
00
ENDCHAR
STARTCHAR C046
ENCODING 38
SWIDTH 428 0
DWIDTH 6 0
BBX 6 14 0 -3
BITMAP
00
00
20
50
50
20
40
A8
90
98
64
00
00
00
ENDCHAR
STARTCHAR C047
ENCODING 39
SWIDTH 428 0
DWIDTH 6 0
BBX 6 14 0 -3
BITMAP
00
20
20
20
00
00
00
00
00
00
00
00
00
00
ENDCHAR
STARTCHAR C050
ENCODING 40
SWIDTH 428 0
DWIDTH 6 0
BBX 6 14 0 -3
BITMAP
00
10
20
20
40
40
40
40
40
20
20
10
00
00
ENDCHAR
STARTCHAR C051
ENCODING 41
SWIDTH 428 0
DWIDTH 6 0
BBX 6 14 0 -3
BITMAP
00
40
20
20
10
10
10
10
10
20
20
40
00
00
ENDCHAR
STARTCHAR C052
ENCODING 42
SWIDTH 428 0
DWIDTH 6 0
BBX 6 14 0 -3
BITMAP
00
00
00
00
00
50
20
F8
20
50
00
00
00
00
ENDCHAR
STARTCHAR C053
ENCODING 43
SWIDTH 428 0
DWIDTH 6 0
BBX 6 14 0 -3
BITMAP
00
00
00
00
00
20
20
F8
20
20
00
00
00
00
ENDCHAR
STARTCHAR C054
ENCODING 44
SWIDTH 428 0
DWIDTH 6 0
BBX 6 14 0 -3
BITMAP
00
00
00
00
00
00
00
00
00
60
60
20
40
00
ENDCHAR
STARTCHAR C055
ENCODING 45
SWIDTH 428 0
DWIDTH 6 0
BBX 6 14 0 -3
BITMAP
00
00
00
00
00
00
00
F8
00
00
00
00
00
00
ENDCHAR
STARTCHAR C056
ENCODING 46
SWIDTH 428 0
DWIDTH 6 0
BBX 6 14 0 -3
BITMAP
00
00
00
00
00
00
00
00
00
60
60
00
00
00
ENDCHAR
STARTCHAR C057
ENCODING 47
SWIDTH 428 0
DWIDTH 6 0
BBX 6 14 0 -3
BITMAP
00
08
08
10
10
20
20
40
40
80
80
00
00
00
ENDCHAR
STARTCHAR C060
ENCODING 48
SWIDTH 428 0
DWIDTH 6 0
BBX 6 14 0 -3
BITMAP
00
00
70
88
88
98
A8
C8
88
88
70
00
00
00
ENDCHAR
STARTCHAR C061
ENCODING 49
SWIDTH 428 0
DWIDTH 6 0
BBX 6 14 0 -3
BITMAP
00
00
20
60
20
20
20
20
20
20
70
00
00
00
ENDCHAR
STARTCHAR C062
ENCODING 50
SWIDTH 428 0
DWIDTH 6 0
BBX 6 14 0 -3
BITMAP
00
00
70
88
08
10
20
40
80
80
F8
00
00
00
ENDCHAR
STARTCHAR C063
ENCODING 51
SWIDTH 428 0
DWIDTH 6 0
BBX 6 14 0 -3
BITMAP
00
00
F8
10
20
70
08
08
08
08
F0
00
00
00
ENDCHAR
STARTCHAR C064
ENCODING 52
SWIDTH 428 0
DWIDTH 6 0
BBX 6 14 0 -3
BITMAP
00
00
08
18
28
48
88
F8
08
08
08
00
00
00
ENDCHAR
STARTCHAR C065
ENCODING 53
SWIDTH 428 0
DWIDTH 6 0
BBX 6 14 0 -3
BITMAP
00
00
F8
80
80
F0
08
08
08
08
F0
00
00
00
ENDCHAR
STARTCHAR C066
ENCODING 54
SWIDTH 428 0
DWIDTH 6 0
BBX 6 14 0 -3
BITMAP
00
00
20
40
80
80
F0
88
88
88
70
00
00
00
ENDCHAR
STARTCHAR C067
ENCODING 55
SWIDTH 428 0
DWIDTH 6 0
BBX 6 14 0 -3
BITMAP
00
00
F8
08
08
10
10
20
20
40
40
00
00
00
ENDCHAR
STARTCHAR C070
ENCODING 56
SWIDTH 428 0
DWIDTH 6 0
BBX 6 14 0 -3
BITMAP
00
00
70
88
88
88
70
88
88
88
70
00
00
00
ENDCHAR
STARTCHAR C071
ENCODING 57
SWIDTH 428 0
DWIDTH 6 0
BBX 6 14 0 -3
BITMAP
00
00
70
88
88
88
78
08
08
10
20
00
00
00
ENDCHAR
STARTCHAR C072
ENCODING 58
SWIDTH 428 0
DWIDTH 6 0
BBX 6 14 0 -3
BITMAP
00
00
00
00
00
60
60
00
00
60
60
00
00
00
ENDCHAR
STARTCHAR C073
ENCODING 59
SWIDTH 428 0
DWIDTH 6 0
BBX 6 14 0 -3
BITMAP
00
00
00
00
00
60
60
00
00
60
60
20
40
00
ENDCHAR
STARTCHAR C074
ENCODING 60
SWIDTH 428 0
DWIDTH 6 0
BBX 6 14 0 -3
BITMAP
00
00
00
08
10
20
40
20
10
08
00
00
00
00
ENDCHAR
STARTCHAR C075
ENCODING 61
SWIDTH 428 0
DWIDTH 6 0
BBX 6 14 0 -3
BITMAP
00
00
00
00
00
F8
00
00
F8
00
00
00
00
00
ENDCHAR
STARTCHAR C076
ENCODING 62
SWIDTH 428 0
DWIDTH 6 0
BBX 6 14 0 -3
BITMAP
00
00
00
40
20
10
08
10
20
40
00
00
00
00
ENDCHAR
STARTCHAR C077
ENCODING 63
SWIDTH 428 0
DWIDTH 6 0
BBX 6 14 0 -3
BITMAP
00
00
70
88
08
10
20
20
00
20
20
00
00
00
ENDCHAR
STARTCHAR C100
ENCODING 64
SWIDTH 428 0
DWIDTH 6 0
BBX 6 14 0 -3
BITMAP
00
00
00
00
70
88
98
A8
A8
A8
98
80
70
00
ENDCHAR
STARTCHAR C101
ENCODING 65
SWIDTH 428 0
DWIDTH 6 0
BBX 6 14 0 -3
BITMAP
00
00
70
88
88
88
F8
88
88
88
88
00
00
00
ENDCHAR
STARTCHAR C102
ENCODING 66
SWIDTH 428 0
DWIDTH 6 0
BBX 6 14 0 -3
BITMAP
00
00
F0
88
88
88
F0
88
88
88
F0
00
00
00
ENDCHAR
STARTCHAR C103
ENCODING 67
SWIDTH 428 0
DWIDTH 6 0
BBX 6 14 0 -3
BITMAP
00
00
78
80
80
80
80
80
80
80
78
00
00
00
ENDCHAR
STARTCHAR C104
ENCODING 68
SWIDTH 428 0
DWIDTH 6 0
BBX 6 14 0 -3
BITMAP
00
00
F0
88
88
88
88
88
88
88
F0
00
00
00
ENDCHAR
STARTCHAR C105
ENCODING 69
SWIDTH 428 0
DWIDTH 6 0
BBX 6 14 0 -3
BITMAP
00
00
F8
80
80
80
F0
80
80
80
F8
00
00
00
ENDCHAR
STARTCHAR C106
ENCODING 70
SWIDTH 428 0
DWIDTH 6 0
BBX 6 14 0 -3
BITMAP
00
00
F8
80
80
80
F0
80
80
80
80
00
00
00
ENDCHAR
STARTCHAR C107
ENCODING 71
SWIDTH 428 0
DWIDTH 6 0
BBX 6 14 0 -3
BITMAP
00
00
78
80
80
80
98
88
88
88
78
00
00
00
ENDCHAR
STARTCHAR C110
ENCODING 72
SWIDTH 428 0
DWIDTH 6 0
BBX 6 14 0 -3
BITMAP
00
00
88
88
88
88
F8
88
88
88
88
00
00
00
ENDCHAR
STARTCHAR C111
ENCODING 73
SWIDTH 428 0
DWIDTH 6 0
BBX 6 14 0 -3
BITMAP
00
00
70
20
20
20
20
20
20
20
70
00
00
00
ENDCHAR
STARTCHAR C112
ENCODING 74
SWIDTH 428 0
DWIDTH 6 0
BBX 6 14 0 -3
BITMAP
00
00
08
08
08
08
08
08
08
88
70
00
00
00
ENDCHAR
STARTCHAR C113
ENCODING 75
SWIDTH 428 0
DWIDTH 6 0
BBX 6 14 0 -3
BITMAP
00
00
88
90
A0
C0
80
C0
A0
90
88
00
00
00
ENDCHAR
STARTCHAR C114
ENCODING 76
SWIDTH 428 0
DWIDTH 6 0
BBX 6 14 0 -3
BITMAP
00
00
80
80
80
80
80
80
80
80
F8
00
00
00
ENDCHAR
STARTCHAR C115
ENCODING 77
SWIDTH 428 0
DWIDTH 6 0
BBX 6 14 0 -3
BITMAP
00
00
88
D8
A8
A8
88
88
88
88
88
00
00
00
ENDCHAR
STARTCHAR C116
ENCODING 78
SWIDTH 428 0
DWIDTH 6 0
BBX 6 14 0 -3
BITMAP
00
00
88
88
C8
A8
98
88
88
88
88
00
00
00
ENDCHAR
STARTCHAR C117
ENCODING 79
SWIDTH 428 0
DWIDTH 6 0
BBX 6 14 0 -3
BITMAP
00
00
70
88
88
88
88
88
88
88
70
00
00
00
ENDCHAR
STARTCHAR C120
ENCODING 80
SWIDTH 428 0
DWIDTH 6 0
BBX 6 14 0 -3
BITMAP
00
00
F0
88
88
88
F0
80
80
80
80
00
00
00
ENDCHAR
STARTCHAR C121
ENCODING 81
SWIDTH 428 0
DWIDTH 6 0
BBX 6 14 0 -3
BITMAP
00
00
70
88
88
88
88
88
88
88
70
10
18
00
ENDCHAR
STARTCHAR C122
ENCODING 82
SWIDTH 428 0
DWIDTH 6 0
BBX 6 14 0 -3
BITMAP
00
00
F0
88
88
88
F0
88
88
88
88
00
00
00
ENDCHAR
STARTCHAR C123
ENCODING 83
SWIDTH 428 0
DWIDTH 6 0
BBX 6 14 0 -3
BITMAP
00
00
78
80
80
80
70
08
08
08
F0
00
00
00
ENDCHAR
STARTCHAR C124
ENCODING 84
SWIDTH 428 0
DWIDTH 6 0
BBX 6 14 0 -3
BITMAP
00
00
F8
20
20
20
20
20
20
20
20
00
00
00
ENDCHAR
STARTCHAR C125
ENCODING 85
SWIDTH 428 0
DWIDTH 6 0
BBX 6 14 0 -3
BITMAP
00
00
88
88
88
88
88
88
88
88
70
00
00
00
ENDCHAR
STARTCHAR C126
ENCODING 86
SWIDTH 428 0
DWIDTH 6 0
BBX 6 14 0 -3
BITMAP
00
00
88
88
88
88
88
50
50
20
20
00
00
00
ENDCHAR
STARTCHAR C127
ENCODING 87
SWIDTH 428 0
DWIDTH 6 0
BBX 6 14 0 -3
BITMAP
00
00
88
88
88
88
88
A8
A8
D8
88
00
00
00
ENDCHAR
STARTCHAR C130
ENCODING 88
SWIDTH 428 0
DWIDTH 6 0
BBX 6 14 0 -3
BITMAP
00
00
88
88
88
50
20
50
88
88
88
00
00
00
ENDCHAR
STARTCHAR C131
ENCODING 89
SWIDTH 428 0
DWIDTH 6 0
BBX 6 14 0 -3
BITMAP
00
00
88
88
88
50
20
20
20
20
20
00
00
00
ENDCHAR
STARTCHAR C132
ENCODING 90
SWIDTH 428 0
DWIDTH 6 0
BBX 6 14 0 -3
BITMAP
00
00
F8
08
08
10
20
40
80
80
F8
00
00
00
ENDCHAR
STARTCHAR C133
ENCODING 91
SWIDTH 428 0
DWIDTH 6 0
BBX 6 14 0 -3
BITMAP
00
30
20
20
20
20
20
20
20
20
20
30
00
00
ENDCHAR
STARTCHAR C134
ENCODING 92
SWIDTH 428 0
DWIDTH 6 0
BBX 6 14 0 -3
BITMAP
00
80
80
40
40
20
20
10
10
08
08
00
00
00
ENDCHAR
STARTCHAR C135
ENCODING 93
SWIDTH 428 0
DWIDTH 6 0
BBX 6 14 0 -3
BITMAP
00
60
20
20
20
20
20
20
20
20
20
60
00
00
ENDCHAR
STARTCHAR C136
ENCODING 94
SWIDTH 428 0
DWIDTH 6 0
BBX 6 14 0 -3
BITMAP
00
00
20
50
88
00
00
00
00
00
00
00
00
00
ENDCHAR
STARTCHAR C137
ENCODING 95
SWIDTH 428 0
DWIDTH 6 0
BBX 6 14 0 -3
BITMAP
00
00
00
00
00
00
00
00
00
00
00
FC
00
00
ENDCHAR
STARTCHAR C140
ENCODING 96
SWIDTH 428 0
DWIDTH 6 0
BBX 6 14 0 -3
BITMAP
00
C0
60
30
00
00
00
00
00
00
00
00
00
00
ENDCHAR
STARTCHAR C141
ENCODING 97
SWIDTH 428 0
DWIDTH 6 0
BBX 6 14 0 -3
BITMAP
00
00
00
00
00
78
88
88
88
88
78
00
00
00
ENDCHAR
STARTCHAR C142
ENCODING 98
SWIDTH 428 0
DWIDTH 6 0
BBX 6 14 0 -3
BITMAP
00
00
80
80
80
F0
88
88
88
88
F0
00
00
00
ENDCHAR
STARTCHAR C143
ENCODING 99
SWIDTH 428 0
DWIDTH 6 0
BBX 6 14 0 -3
BITMAP
00
00
00
00
00
78
80
80
80
80
78
00
00
00
ENDCHAR
STARTCHAR C144
ENCODING 100
SWIDTH 428 0
DWIDTH 6 0
BBX 6 14 0 -3
BITMAP
00
00
08
08
08
78
88
88
88
88
78
00
00
00
ENDCHAR
STARTCHAR C145
ENCODING 101
SWIDTH 428 0
DWIDTH 6 0
BBX 6 14 0 -3
BITMAP
00
00
00
00
00
70
88
F8
80
80
78
00
00
00
ENDCHAR
STARTCHAR C146
ENCODING 102
SWIDTH 428 0
DWIDTH 6 0
BBX 6 14 0 -3
BITMAP
00
00
38
40
40
70
40
40
40
40
40
00
00
00
ENDCHAR
STARTCHAR C147
ENCODING 103
SWIDTH 428 0
DWIDTH 6 0
BBX 6 14 0 -3
BITMAP
00
00
00
00
00
78
88
88
88
88
78
08
08
70
ENDCHAR
STARTCHAR C150
ENCODING 104
SWIDTH 428 0
DWIDTH 6 0
BBX 6 14 0 -3
BITMAP
00
00
80
80
80
F0
88
88
88
88
88
00
00
00
ENDCHAR
STARTCHAR C151
ENCODING 105
SWIDTH 428 0
DWIDTH 6 0
BBX 6 14 0 -3
BITMAP
00
00
20
20
00
60
20
20
20
20
20
00
00
00
ENDCHAR
STARTCHAR C152
ENCODING 106
SWIDTH 428 0
DWIDTH 6 0
BBX 6 14 0 -3
BITMAP
00
00
10
10
00
30
10
10
10
10
10
10
10
60
ENDCHAR
STARTCHAR C153
ENCODING 107
SWIDTH 428 0
DWIDTH 6 0
BBX 6 14 0 -3
BITMAP
00
00
80
80
80
88
90
A0
E0
90
88
00
00
00
ENDCHAR
STARTCHAR C154
ENCODING 108
SWIDTH 428 0
DWIDTH 6 0
BBX 6 14 0 -3
BITMAP
00
00
60
20
20
20
20
20
20
20
30
00
00
00
ENDCHAR
STARTCHAR C155
ENCODING 109
SWIDTH 428 0
DWIDTH 6 0
BBX 6 14 0 -3
BITMAP
00
00
00
00
00
D8
A8
A8
A8
A8
A8
00
00
00
ENDCHAR
STARTCHAR C156
ENCODING 110
SWIDTH 428 0
DWIDTH 6 0
BBX 6 14 0 -3
BITMAP
00
00
00
00
00
F0
88
88
88
88
88
00
00
00
ENDCHAR
STARTCHAR C157
ENCODING 111
SWIDTH 428 0
DWIDTH 6 0
BBX 6 14 0 -3
BITMAP
00
00
00
00
00
70
88
88
88
88
70
00
00
00
ENDCHAR
STARTCHAR C160
ENCODING 112
SWIDTH 428 0
DWIDTH 6 0
BBX 6 14 0 -3
BITMAP
00
00
00
00
00
F0
88
88
88
88
F0
80
80
80
ENDCHAR
STARTCHAR C161
ENCODING 113
SWIDTH 428 0
DWIDTH 6 0
BBX 6 14 0 -3
BITMAP
00
00
00
00
00
78
88
88
88
88
78
08
08
08
ENDCHAR
STARTCHAR C162
ENCODING 114
SWIDTH 428 0
DWIDTH 6 0
BBX 6 14 0 -3
BITMAP
00
00
00
00
00
F0
88
80
80
80
80
00
00
00
ENDCHAR
STARTCHAR C163
ENCODING 115
SWIDTH 428 0
DWIDTH 6 0
BBX 6 14 0 -3
BITMAP
00
00
00
00
00
78
80
70
08
08
F0
00
00
00
ENDCHAR
STARTCHAR C164
ENCODING 116
SWIDTH 428 0
DWIDTH 6 0
BBX 6 14 0 -3
BITMAP
00
00
00
40
40
70
40
40
40
40
30
00
00
00
ENDCHAR
STARTCHAR C165
ENCODING 117
SWIDTH 428 0
DWIDTH 6 0
BBX 6 14 0 -3
BITMAP
00
00
00
00
00
88
88
88
88
88
78
00
00
00
ENDCHAR
STARTCHAR C166
ENCODING 118
SWIDTH 428 0
DWIDTH 6 0
BBX 6 14 0 -3
BITMAP
00
00
00
00
00
88
88
88
88
50
20
00
00
00
ENDCHAR
STARTCHAR C167
ENCODING 119
SWIDTH 428 0
DWIDTH 6 0
BBX 6 14 0 -3
BITMAP
00
00
00
00
00
88
88
A8
A8
A8
70
00
00
00
ENDCHAR
STARTCHAR C170
ENCODING 120
SWIDTH 428 0
DWIDTH 6 0
BBX 6 14 0 -3
BITMAP
00
00
00
00
00
88
50
20
20
50
88
00
00
00
ENDCHAR
STARTCHAR C171
ENCODING 121
SWIDTH 428 0
DWIDTH 6 0
BBX 6 14 0 -3
BITMAP
00
00
00
00
00
88
88
88
88
88
78
08
08
70
ENDCHAR
STARTCHAR C172
ENCODING 122
SWIDTH 428 0
DWIDTH 6 0
BBX 6 14 0 -3
BITMAP
00
00
00
00
00
F8
10
20
40
80
F8
00
00
00
ENDCHAR
STARTCHAR C173
ENCODING 123
SWIDTH 428 0
DWIDTH 6 0
BBX 6 14 0 -3
BITMAP
00
30
20
20
20
20
C0
20
20
20
20
30
00
00
ENDCHAR
STARTCHAR C174
ENCODING 124
SWIDTH 428 0
DWIDTH 6 0
BBX 6 14 0 -3
BITMAP
00
20
20
20
20
20
20
20
20
20
20
20
20
20
ENDCHAR
STARTCHAR C175
ENCODING 125
SWIDTH 428 0
DWIDTH 6 0
BBX 6 14 0 -3
BITMAP
00
60
20
20
20
20
18
20
20
20
20
60
00
00
ENDCHAR
STARTCHAR C176
ENCODING 126
SWIDTH 428 0
DWIDTH 6 0
BBX 6 14 0 -3
BITMAP
00
00
68
B0
00
00
00
00
00
00
00
00
00
00
ENDCHAR
STARTCHAR char127
ENCODING 127
SWIDTH 428 0
DWIDTH 6 0
BBX 6 14 0 -3
BITMAP
00
00
00
00
00
00
00
00
00
00
FC
00
00
00
ENDCHAR
STARTCHAR C200
ENCODING 128
SWIDTH 428 0
DWIDTH 6 0
BBX 6 14 0 -3
BITMAP
00
00
00
00
30
48
E0
40
E0
48
30
00
00
00
ENDCHAR
STARTCHAR C201
ENCODING 129
SWIDTH 428 0
DWIDTH 6 0
BBX 6 14 0 -3
BITMAP
00
00
00
88
00
88
88
88
88
88
78
00
00
00
ENDCHAR
STARTCHAR C202
ENCODING 130
SWIDTH 428 0
DWIDTH 6 0
BBX 6 14 0 -3
BITMAP
00
00
00
00
00
00
00
00
00
C0
C0
40
80
00
ENDCHAR
STARTCHAR C203
ENCODING 131
SWIDTH 428 0
DWIDTH 6 0
BBX 6 14 0 -3
BITMAP
00
18
20
20
20
70
20
20
20
20
20
C0
00
00
ENDCHAR
STARTCHAR C204
ENCODING 132
SWIDTH 428 0
DWIDTH 6 0
BBX 6 14 0 -3
BITMAP
00
00
00
00
00
00
00
00
00
00
50
50
A0
00
ENDCHAR
STARTCHAR C205
ENCODING 133
SWIDTH 428 0
DWIDTH 6 0
BBX 6 14 0 -3
BITMAP
00
00
00
00
00
00
00
00
00
A8
A8
00
00
00
ENDCHAR
STARTCHAR C206
ENCODING 134
SWIDTH 428 0
DWIDTH 6 0
BBX 6 14 0 -3
BITMAP
00
00
00
20
70
20
20
20
20
20
20
00
00
00
ENDCHAR
STARTCHAR C207
ENCODING 135
SWIDTH 428 0
DWIDTH 6 0
BBX 6 14 0 -3
BITMAP
00
00
00
20
70
20
20
20
20
70
20
00
00
00
ENDCHAR
STARTCHAR C210
ENCODING 136
SWIDTH 428 0
DWIDTH 6 0
BBX 6 14 0 -3
BITMAP
00
20
50
88
00
00
00
00
00
00
00
00
00
00
ENDCHAR
STARTCHAR C212
ENCODING 138
SWIDTH 428 0
DWIDTH 6 0
BBX 6 14 0 -3
BITMAP
00
50
20
78
80
80
70
08
08
08
F0
00
00
00
ENDCHAR
STARTCHAR C213
ENCODING 139
SWIDTH 428 0
DWIDTH 6 0
BBX 6 14 0 -3
BITMAP
00
00
00
00
00
20
40
80
40
20
00
00
00
00
ENDCHAR
STARTCHAR C214
ENCODING 140
SWIDTH 428 0
DWIDTH 6 0
BBX 6 14 0 -3
BITMAP
00
00
00
00
78
90
90
98
90
90
78
00
00
00
ENDCHAR
STARTCHAR C215
ENCODING 141
SWIDTH 428 0
DWIDTH 6 0
BBX 6 14 0 -3
BITMAP
00
00
40
20
00
60
20
20
20
20
20
00
00
00
ENDCHAR
STARTCHAR C216
ENCODING 142
SWIDTH 428 0
DWIDTH 6 0
BBX 6 14 0 -3
BITMAP
00
00
00
50
20
F8
10
20
40
80
F8
00
00
00
ENDCHAR
STARTCHAR C217
ENCODING 143
SWIDTH 428 0
DWIDTH 6 0
BBX 6 14 0 -3
BITMAP
20
50
20
70
88
88
F8
88
88
88
88
00
00
00
ENDCHAR
STARTCHAR C220
ENCODING 144
SWIDTH 428 0
DWIDTH 6 0
BBX 6 14 0 -3
BITMAP
10
20
00
F8
80
80
F0
80
80
80
F8
00
00
00
ENDCHAR
STARTCHAR C221
ENCODING 145
SWIDTH 428 0
DWIDTH 6 0
BBX 6 14 0 -3
BITMAP
40
80
C0
C0
00
00
00
00
00
00
00
00
00
00
ENDCHAR
STARTCHAR C222
ENCODING 146
SWIDTH 428 0
DWIDTH 6 0
BBX 6 14 0 -3
BITMAP
C0
C0
40
80
00
00
00
00
00
00
00
00
00
00
ENDCHAR
STARTCHAR C223
ENCODING 147
SWIDTH 428 0
DWIDTH 6 0
BBX 6 14 0 -3
BITMAP
00
48
90
D8
D8
00
00
00
00
00
00
00
00
00
ENDCHAR
STARTCHAR C224
ENCODING 148
SWIDTH 428 0
DWIDTH 6 0
BBX 6 14 0 -3
BITMAP
00
D8
D8
48
90
00
00
00
00
00
00
00
00
00
ENDCHAR
STARTCHAR C225
ENCODING 149
SWIDTH 428 0
DWIDTH 6 0
BBX 6 14 0 -3
BITMAP
00
00
00
00
00
00
00
30
78
78
30
00
00
00
ENDCHAR
STARTCHAR C226
ENCODING 150
SWIDTH 428 0
DWIDTH 6 0
BBX 6 14 0 -3
BITMAP
00
00
00
00
00
00
00
F8
00
00
00
00
00
00
ENDCHAR
STARTCHAR C227
ENCODING 151
SWIDTH 428 0
DWIDTH 6 0
BBX 6 14 0 -3
BITMAP
00
00
00
00
00
00
F8
00
00
00
00
00
00
00
ENDCHAR
STARTCHAR C230
ENCODING 152
SWIDTH 428 0
DWIDTH 6 0
BBX 6 14 0 -3
BITMAP
00
48
90
00
00
00
00
00
00
00
00
00
00
00
ENDCHAR
STARTCHAR C231
ENCODING 153
SWIDTH 428 0
DWIDTH 6 0
BBX 6 14 0 -3
BITMAP
00
F4
5C
54
54
00
00
00
00
00
00
00
00
00
ENDCHAR
STARTCHAR C232
ENCODING 154
SWIDTH 428 0
DWIDTH 6 0
BBX 6 14 0 -3
BITMAP
00
00
00
50
20
78
80
70
08
08
F0
00
00
00
ENDCHAR
STARTCHAR C233
ENCODING 155
SWIDTH 428 0
DWIDTH 6 0
BBX 6 14 0 -3
BITMAP
00
00
00
00
00
40
20
10
20
40
00
00
00
00
ENDCHAR
STARTCHAR C235
ENCODING 157
SWIDTH 428 0
DWIDTH 6 0
BBX 6 14 0 -3
BITMAP
00
88
88
50
20
20
70
20
70
20
20
00
00
00
ENDCHAR
STARTCHAR C236
ENCODING 158
SWIDTH 428 0
DWIDTH 6 0
BBX 6 14 0 -3
BITMAP
00
00
00
00
50
20
F8
10
20
40
F8
00
00
00
ENDCHAR
STARTCHAR C237
ENCODING 159
SWIDTH 428 0
DWIDTH 6 0
BBX 6 14 0 -3
BITMAP
00
50
50
88
88
50
50
20
20
20
20
00
00
00
ENDCHAR
STARTCHAR C241
ENCODING 161
SWIDTH 428 0
DWIDTH 6 0
BBX 6 14 0 -3
BITMAP
00
00
20
20
00
60
20
20
20
20
20
00
00
00
ENDCHAR
STARTCHAR C242
ENCODING 162
SWIDTH 428 0
DWIDTH 6 0
BBX 6 14 0 -3
BITMAP
00
00
00
00
20
70
A8
A0
A8
70
20
00
00
00
ENDCHAR
STARTCHAR C243
ENCODING 163
SWIDTH 428 0
DWIDTH 6 0
BBX 6 14 0 -3
BITMAP
00
00
30
48
40
F0
40
40
40
40
F8
00
00
00
ENDCHAR
STARTCHAR C244
ENCODING 164
SWIDTH 428 0
DWIDTH 6 0
BBX 6 14 0 -3
BITMAP
00
00
00
00
00
00
88
70
50
70
88
00
00
00
ENDCHAR
STARTCHAR C245
ENCODING 165
SWIDTH 428 0
DWIDTH 6 0
BBX 6 14 0 -3
BITMAP
00
00
88
50
50
20
F8
20
F8
20
20
00
00
00
ENDCHAR
STARTCHAR C246
ENCODING 166
SWIDTH 428 0
DWIDTH 6 0
BBX 6 14 0 -3
BITMAP
00
00
00
00
20
20
20
00
20
20
20
00
00
00
ENDCHAR
STARTCHAR C247
ENCODING 167
SWIDTH 428 0
DWIDTH 6 0
BBX 6 14 0 -3
BITMAP
00
00
78
80
80
70
88
70
08
08
F0
00
00
00
ENDCHAR
STARTCHAR C250
ENCODING 168
SWIDTH 428 0
DWIDTH 6 0
BBX 6 14 0 -3
BITMAP
00
28
00
00
00
00
00
00
00
00
00
00
00
00
ENDCHAR
STARTCHAR C252
ENCODING 170
SWIDTH 428 0
DWIDTH 6 0
BBX 6 14 0 -3
BITMAP
00
00
00
00
78
88
88
88
78
00
F8
00
00
00
ENDCHAR
STARTCHAR C253
ENCODING 171
SWIDTH 428 0
DWIDTH 6 0
BBX 6 14 0 -3
BITMAP
00
00
00
00
00
00
00
48
90
48
00
00
00
00
ENDCHAR
STARTCHAR C254
ENCODING 172
SWIDTH 428 0
DWIDTH 6 0
BBX 6 14 0 -3
BITMAP
00
00
00
00
00
00
00
F8
08
08
00
00
00
00
ENDCHAR
STARTCHAR C255
ENCODING 173
SWIDTH 428 0
DWIDTH 6 0
BBX 6 14 0 -3
BITMAP
00
00
00
00
00
00
00
00
70
00
00
00
00
00
ENDCHAR
STARTCHAR C257
ENCODING 175
SWIDTH 428 0
DWIDTH 6 0
BBX 6 14 0 -3
BITMAP
00
F8
00
00
00
00
00
00
00
00
00
00
00
00
ENDCHAR
STARTCHAR C260
ENCODING 176
SWIDTH 428 0
DWIDTH 6 0
BBX 6 14 0 -3
BITMAP
00
20
50
20
00
00
00
00
00
00
00
00
00
00
ENDCHAR
STARTCHAR C261
ENCODING 177
SWIDTH 428 0
DWIDTH 6 0
BBX 6 14 0 -3
BITMAP
00
00
00
00
00
00
20
F8
20
00
F8
00
00
00
ENDCHAR
STARTCHAR C262
ENCODING 178
SWIDTH 428 0
DWIDTH 6 0
BBX 6 14 0 -3
BITMAP
40
A0
20
40
E0
00
00
00
00
00
00
00
00
00
ENDCHAR
STARTCHAR C263
ENCODING 179
SWIDTH 428 0
DWIDTH 6 0
BBX 6 14 0 -3
BITMAP
E0
20
40
20
E0
00
00
00
00
00
00
00
00
00
ENDCHAR
STARTCHAR C264
ENCODING 180
SWIDTH 428 0
DWIDTH 6 0
BBX 6 14 0 -3
BITMAP
40
80
00
00
00
00
00
00
00
00
00
00
00
00
ENDCHAR
STARTCHAR C265
ENCODING 181
SWIDTH 428 0
DWIDTH 6 0
BBX 6 14 0 -3
BITMAP
00
00
00
00
00
00
90
90
90
90
F0
88
80
80
ENDCHAR
STARTCHAR C266
ENCODING 182
SWIDTH 428 0
DWIDTH 6 0
BBX 6 14 0 -3
BITMAP
00
00
78
E8
E8
68
28
28
28
28
28
00
00
00
ENDCHAR
STARTCHAR C267
ENCODING 183
SWIDTH 428 0
DWIDTH 6 0
BBX 6 14 0 -3
BITMAP
00
00
00
00
00
00
00
00
00
40
40
00
00
00
ENDCHAR
STARTCHAR C271
ENCODING 185
SWIDTH 428 0
DWIDTH 6 0
BBX 6 14 0 -3
BITMAP
40
C0
40
40
E0
00
00
00
00
00
00
00
00
00
ENDCHAR
STARTCHAR C272
ENCODING 186
SWIDTH 428 0
DWIDTH 6 0
BBX 6 14 0 -3
BITMAP
00
00
00
00
20
50
20
00
F8
00
00
00
00
00
ENDCHAR
STARTCHAR C273
ENCODING 187
SWIDTH 428 0
DWIDTH 6 0
BBX 6 14 0 -3
BITMAP
00
00
00
00
00
00
00
90
48
90
00
00
00
00
ENDCHAR
STARTCHAR C274
ENCODING 188
SWIDTH 428 0
DWIDTH 6 0
BBX 6 14 0 -3
BITMAP
40
C0
40
40
E0
08
10
20
40
88
18
28
78
08
ENDCHAR
STARTCHAR C275
ENCODING 189
SWIDTH 428 0
DWIDTH 6 0
BBX 6 14 0 -3
BITMAP
40
C0
40
40
E0
08
10
20
40
90
28
08
10
38
ENDCHAR
STARTCHAR C276
ENCODING 190
SWIDTH 428 0
DWIDTH 6 0
BBX 6 14 0 -3
BITMAP
40
A0
20
40
20
A0
48
10
20
48
98
28
78
08
ENDCHAR
STARTCHAR C277
ENCODING 191
SWIDTH 428 0
DWIDTH 6 0
BBX 6 14 0 -3
BITMAP
00
00
00
20
20
00
20
20
20
20
40
80
88
70
ENDCHAR
STARTCHAR C300
ENCODING 192
SWIDTH 428 0
DWIDTH 6 0
BBX 6 14 0 -3
BITMAP
00
20
10
70
88
88
F8
88
88
88
88
00
00
00
ENDCHAR
STARTCHAR C301
ENCODING 193
SWIDTH 428 0
DWIDTH 6 0
BBX 6 14 0 -3
BITMAP
00
20
40
70
88
88
F8
88
88
88
88
00
00
00
ENDCHAR
STARTCHAR C302
ENCODING 194
SWIDTH 428 0
DWIDTH 6 0
BBX 6 14 0 -3
BITMAP
20
50
00
70
88
88
F8
88
88
88
88
00
00
00
ENDCHAR
STARTCHAR C303
ENCODING 195
SWIDTH 428 0
DWIDTH 6 0
BBX 6 14 0 -3
BITMAP
28
50
00
70
88
88
F8
88
88
88
88
00
00
00
ENDCHAR
STARTCHAR C304
ENCODING 196
SWIDTH 428 0
DWIDTH 6 0
BBX 6 14 0 -3
BITMAP
00
50
00
70
88
88
F8
88
88
88
88
00
00
00
ENDCHAR
STARTCHAR C305
ENCODING 197
SWIDTH 428 0
DWIDTH 6 0
BBX 6 14 0 -3
BITMAP
20
50
20
70
88
88
F8
88
88
88
88
00
00
00
ENDCHAR
STARTCHAR C306
ENCODING 198
SWIDTH 428 0
DWIDTH 6 0
BBX 6 14 0 -3
BITMAP
00
00
00
78
A0
A0
F8
A0
A0
A0
B8
00
00
00
ENDCHAR
STARTCHAR C307
ENCODING 199
SWIDTH 428 0
DWIDTH 6 0
BBX 6 14 0 -3
BITMAP
00
00
00
78
80
80
80
80
80
80
78
10
20
00
ENDCHAR
STARTCHAR C310
ENCODING 200
SWIDTH 428 0
DWIDTH 6 0
BBX 6 14 0 -3
BITMAP
00
20
10
F8
80
80
F0
80
80
80
F8
00
00
00
ENDCHAR
STARTCHAR C311
ENCODING 201
SWIDTH 428 0
DWIDTH 6 0
BBX 6 14 0 -3
BITMAP
00
20
40
F8
80
80
F0
80
80
80
F8
00
00
00
ENDCHAR
STARTCHAR C312
ENCODING 202
SWIDTH 428 0
DWIDTH 6 0
BBX 6 14 0 -3
BITMAP
20
50
00
F8
80
80
F0
80
80
80
F8
00
00
00
ENDCHAR
STARTCHAR C313
ENCODING 203
SWIDTH 428 0
DWIDTH 6 0
BBX 6 14 0 -3
BITMAP
00
50
00
F8
80
80
F0
80
80
80
F8
00
00
00
ENDCHAR
STARTCHAR C314
ENCODING 204
SWIDTH 428 0
DWIDTH 6 0
BBX 6 14 0 -3
BITMAP
00
20
10
70
20
20
20
20
20
20
70
00
00
00
ENDCHAR
STARTCHAR C315
ENCODING 205
SWIDTH 428 0
DWIDTH 6 0
BBX 6 14 0 -3
BITMAP
00
10
20
70
20
20
20
20
20
20
70
00
00
00
ENDCHAR
STARTCHAR C316
ENCODING 206
SWIDTH 428 0
DWIDTH 6 0
BBX 6 14 0 -3
BITMAP
20
50
00
70
20
20
20
20
20
20
70
00
00
00
ENDCHAR
STARTCHAR C317
ENCODING 207
SWIDTH 428 0
DWIDTH 6 0
BBX 6 14 0 -3
BITMAP
00
50
00
70
20
20
20
20
20
20
70
00
00
00
ENDCHAR
STARTCHAR C320
ENCODING 208
SWIDTH 428 0
DWIDTH 6 0
BBX 6 14 0 -3
BITMAP
00
00
00
F0
88
88
88
E8
88
88
F0
00
00
00
ENDCHAR
STARTCHAR C321
ENCODING 209
SWIDTH 428 0
DWIDTH 6 0
BBX 6 14 0 -3
BITMAP
68
B0
00
88
88
C8
A8
98
88
88
88
00
00
00
ENDCHAR
STARTCHAR C322
ENCODING 210
SWIDTH 428 0
DWIDTH 6 0
BBX 6 14 0 -3
BITMAP
00
20
10
70
88
88
88
88
88
88
70
00
00
00
ENDCHAR
STARTCHAR C323
ENCODING 211
SWIDTH 428 0
DWIDTH 6 0
BBX 6 14 0 -3
BITMAP
00
20
40
70
88
88
88
88
88
88
70
00
00
00
ENDCHAR
STARTCHAR C324
ENCODING 212
SWIDTH 428 0
DWIDTH 6 0
BBX 6 14 0 -3
BITMAP
20
50
00
70
88
88
88
88
88
88
70
00
00
00
ENDCHAR
STARTCHAR C325
ENCODING 213
SWIDTH 428 0
DWIDTH 6 0
BBX 6 14 0 -3
BITMAP
68
B0
00
70
88
88
88
88
88
88
70
00
00
00
ENDCHAR
STARTCHAR C326
ENCODING 214
SWIDTH 428 0
DWIDTH 6 0
BBX 6 14 0 -3
BITMAP
00
50
00
70
88
88
88
88
88
88
70
00
00
00
ENDCHAR
STARTCHAR C327
ENCODING 215
SWIDTH 428 0
DWIDTH 6 0
BBX 6 14 0 -3
BITMAP
00
00
00
00
00
88
50
20
20
50
88
00
00
00
ENDCHAR
STARTCHAR C330
ENCODING 216
SWIDTH 428 0
DWIDTH 6 0
BBX 6 14 0 -3
BITMAP
00
00
00
78
98
A8
A8
A8
A8
C8
F0
00
00
00
ENDCHAR
STARTCHAR C331
ENCODING 217
SWIDTH 428 0
DWIDTH 6 0
BBX 6 14 0 -3
BITMAP
00
00
20
10
88
88
88
88
88
88
70
00
00
00
ENDCHAR
STARTCHAR C332
ENCODING 218
SWIDTH 428 0
DWIDTH 6 0
BBX 6 14 0 -3
BITMAP
00
20
40
00
88
88
88
88
88
88
70
00
00
00
ENDCHAR
STARTCHAR C333
ENCODING 219
SWIDTH 428 0
DWIDTH 6 0
BBX 6 14 0 -3
BITMAP
00
20
50
00
88
88
88
88
88
88
70
00
00
00
ENDCHAR
STARTCHAR C334
ENCODING 220
SWIDTH 428 0
DWIDTH 6 0
BBX 6 14 0 -3
BITMAP
00
00
50
00
88
88
88
88
88
88
70
00
00
00
ENDCHAR
STARTCHAR C335
ENCODING 221
SWIDTH 428 0
DWIDTH 6 0
BBX 6 14 0 -3
BITMAP
00
10
20
88
88
50
20
20
20
20
20
00
00
00
ENDCHAR
STARTCHAR C336
ENCODING 222
SWIDTH 428 0
DWIDTH 6 0
BBX 6 14 0 -3
BITMAP
00
00
00
80
F0
88
88
F0
80
80
80
00
00
00
ENDCHAR
STARTCHAR C337
ENCODING 223
SWIDTH 428 0
DWIDTH 6 0
BBX 6 14 0 -3
BITMAP
00
00
00
F0
88
90
E0
90
88
88
F0
00
00
00
ENDCHAR
STARTCHAR C340
ENCODING 224
SWIDTH 428 0
DWIDTH 6 0
BBX 6 14 0 -3
BITMAP
00
00
40
20
00
78
88
88
88
88
78
00
00
00
ENDCHAR
STARTCHAR C341
ENCODING 225
SWIDTH 428 0
DWIDTH 6 0
BBX 6 14 0 -3
BITMAP
00
00
10
20
00
78
88
88
88
88
78
00
00
00
ENDCHAR
STARTCHAR C342
ENCODING 226
SWIDTH 428 0
DWIDTH 6 0
BBX 6 14 0 -3
BITMAP
00
00
20
50
00
78
88
88
88
88
78
00
00
00
ENDCHAR
STARTCHAR C343
ENCODING 227
SWIDTH 428 0
DWIDTH 6 0
BBX 6 14 0 -3
BITMAP
00
00
68
B0
00
78
88
88
88
88
78
00
00
00
ENDCHAR
STARTCHAR C344
ENCODING 228
SWIDTH 428 0
DWIDTH 6 0
BBX 6 14 0 -3
BITMAP
00
00
00
48
00
78
88
88
88
88
78
00
00
00
ENDCHAR
STARTCHAR C345
ENCODING 229
SWIDTH 428 0
DWIDTH 6 0
BBX 6 14 0 -3
BITMAP
00
20
50
20
00
78
88
88
88
88
78
00
00
00
ENDCHAR
STARTCHAR C346
ENCODING 230
SWIDTH 428 0
DWIDTH 6 0
BBX 6 14 0 -3
BITMAP
00
00
00
00
00
D8
20
F0
A0
A0
58
00
00
00
ENDCHAR
STARTCHAR C347
ENCODING 231
SWIDTH 428 0
DWIDTH 6 0
BBX 6 14 0 -3
BITMAP
00
00
00
00
00
78
80
80
80
80
78
10
20
00
ENDCHAR
STARTCHAR C350
ENCODING 232
SWIDTH 428 0
DWIDTH 6 0
BBX 6 14 0 -3
BITMAP
00
00
40
20
00
70
88
F8
80
80
78
00
00
00
ENDCHAR
STARTCHAR C351
ENCODING 233
SWIDTH 428 0
DWIDTH 6 0
BBX 6 14 0 -3
BITMAP
00
00
10
20
00
70
88
F8
80
80
78
00
00
00
ENDCHAR
STARTCHAR C352
ENCODING 234
SWIDTH 428 0
DWIDTH 6 0
BBX 6 14 0 -3
BITMAP
00
00
20
50
00
70
88
F8
80
80
78
00
00
00
ENDCHAR
STARTCHAR C353
ENCODING 235
SWIDTH 428 0
DWIDTH 6 0
BBX 6 14 0 -3
BITMAP
00
00
00
50
00
70
88
F8
80
80
78
00
00
00
ENDCHAR
STARTCHAR C354
ENCODING 236
SWIDTH 428 0
DWIDTH 6 0
BBX 6 14 0 -3
BITMAP
00
00
20
10
00
20
20
20
20
20
20
00
00
00
ENDCHAR
STARTCHAR C355
ENCODING 237
SWIDTH 428 0
DWIDTH 6 0
BBX 6 14 0 -3
BITMAP
00
00
10
20
00
20
20
20
20
20
20
00
00
00
ENDCHAR
STARTCHAR C356
ENCODING 238
SWIDTH 428 0
DWIDTH 6 0
BBX 6 14 0 -3
BITMAP
00
00
20
50
00
20
20
20
20
20
20
00
00
00
ENDCHAR
STARTCHAR C357
ENCODING 239
SWIDTH 428 0
DWIDTH 6 0
BBX 6 14 0 -3
BITMAP
00
00
00
50
00
20
20
20
20
20
20
00
00
00
ENDCHAR
STARTCHAR C360
ENCODING 240
SWIDTH 428 0
DWIDTH 6 0
BBX 6 14 0 -3
BITMAP
00
00
D0
B0
10
70
88
88
88
88
70
00
00
00
ENDCHAR
STARTCHAR C361
ENCODING 241
SWIDTH 428 0
DWIDTH 6 0
BBX 6 14 0 -3
BITMAP
00
00
68
B0
00
F0
88
88
88
88
88
00
00
00
ENDCHAR
STARTCHAR C362
ENCODING 242
SWIDTH 428 0
DWIDTH 6 0
BBX 6 14 0 -3
BITMAP
00
00
40
20
00
70
88
88
88
88
70
00
00
00
ENDCHAR
STARTCHAR C363
ENCODING 243
SWIDTH 428 0
DWIDTH 6 0
BBX 6 14 0 -3
BITMAP
00
00
10
20
00
70
88
88
88
88
70
00
00
00
ENDCHAR
STARTCHAR C364
ENCODING 244
SWIDTH 428 0
DWIDTH 6 0
BBX 6 14 0 -3
BITMAP
00
00
20
50
00
70
88
88
88
88
70
00
00
00
ENDCHAR
STARTCHAR C365
ENCODING 245
SWIDTH 428 0
DWIDTH 6 0
BBX 6 14 0 -3
BITMAP
00
00
68
B0
00
70
88
88
88
88
70
00
00
00
ENDCHAR
STARTCHAR C366
ENCODING 246
SWIDTH 428 0
DWIDTH 6 0
BBX 6 14 0 -3
BITMAP
00
00
00
50
00
70
88
88
88
88
70
00
00
00
ENDCHAR
STARTCHAR C367
ENCODING 247
SWIDTH 428 0
DWIDTH 6 0
BBX 6 14 0 -3
BITMAP
00
00
00
00
00
20
00
F8
00
20
00
00
00
00
ENDCHAR
STARTCHAR C370
ENCODING 248
SWIDTH 428 0
DWIDTH 6 0
BBX 6 14 0 -3
BITMAP
00
00
00
00
00
78
98
A8
A8
C8
F0
00
00
00
ENDCHAR
STARTCHAR C371
ENCODING 249
SWIDTH 428 0
DWIDTH 6 0
BBX 6 14 0 -3
BITMAP
00
00
40
20
00
88
88
88
88
88
78
00
00
00
ENDCHAR
STARTCHAR C372
ENCODING 250
SWIDTH 428 0
DWIDTH 6 0
BBX 6 14 0 -3
BITMAP
00
00
10
20
00
88
88
88
88
88
78
00
00
00
ENDCHAR
STARTCHAR C373
ENCODING 251
SWIDTH 428 0
DWIDTH 6 0
BBX 6 14 0 -3
BITMAP
00
00
20
50
00
88
88
88
88
88
78
00
00
00
ENDCHAR
STARTCHAR C374
ENCODING 252
SWIDTH 428 0
DWIDTH 6 0
BBX 6 14 0 -3
BITMAP
00
00
00
50
00
88
88
88
88
88
78
00
00
00
ENDCHAR
STARTCHAR C375
ENCODING 253
SWIDTH 428 0
DWIDTH 6 0
BBX 6 14 0 -3
BITMAP
00
00
10
20
00
88
88
88
88
88
78
08
08
70
ENDCHAR
STARTCHAR C376
ENCODING 254
SWIDTH 428 0
DWIDTH 6 0
BBX 6 14 0 -3
BITMAP
00
00
00
00
80
80
80
F0
88
88
F0
80
80
80
ENDCHAR
STARTCHAR C377
ENCODING 255
SWIDTH 428 0
DWIDTH 6 0
BBX 6 14 0 -3
BITMAP
00
00
00
50
00
88
88
88
88
88
78
08
08
70
ENDCHAR
ENDFONT
